<?xml version="1.0" encoding="UTF-8"?>
<svg version="1.1" xmlns="http://www.w3.org/2000/svg" width="2031" height="329">
<path d="M0 0 C1.65023163 -0.00472824 1.65023163 -0.00472824 3.33380127 -0.009552 C4.52012146 -0.00752777 5.70644165 -0.00550354 6.92871094 -0.00341797 C8.17191101 -0.00437469 9.41511108 -0.00533142 10.69598389 -0.00631714 C13.33886159 -0.00699811 15.98164717 -0.0056549 18.62451172 -0.00097656 C22.57879791 0.00569834 26.5330176 -0.00087674 30.48730469 -0.00732422 C42.77613017 -0.01113686 55.05027224 0.09410652 67.33105469 0.56298828 C68.33722839 0.60015961 69.3434021 0.63733093 70.38006592 0.67562866 C93.86769856 1.69012385 116.05540074 9.97605655 132.41308594 27.12939453 C145.91097715 43.44037458 149.65814242 62.43646648 148.41308594 83.12939453 C146.59688752 97.27286098 141.74326699 108.43335192 132.41308594 119.12939453 C131.26839844 120.67626953 131.26839844 120.67626953 130.10058594 122.25439453 C123.79656968 128.99822587 116.08703146 133.50964474 107.91308594 137.62939453 C107.21852295 137.9798584 106.52395996 138.33032227 105.80834961 138.69140625 C102.83646609 140.13959301 100.76093659 141.12939453 97.41308594 141.12939453 C97.41308594 141.78939453 97.41308594 142.44939453 97.41308594 143.12939453 C98.15042969 143.39880859 98.88777344 143.66822266 99.64746094 143.94580078 C122.19748858 153.5964482 132.03455795 184.01356642 140.46679688 204.80084229 C141.53761197 207.43581821 142.61376605 210.06858036 143.69042969 212.70117188 C146.25166138 218.96573038 148.80250965 225.23447548 151.35058594 231.50439453 C151.76936005 232.53285492 152.18813416 233.56131531 152.61959839 234.62094116 C164.97275393 264.99685291 164.97275393 264.99685291 164.41308594 272.12939453 C160.60293688 276.27573322 156.93658009 276.93384105 151.46435547 277.23754883 C149.32121531 277.29933623 147.18208114 277.31498706 145.03808594 277.31689453 C144.32136719 277.32914062 143.60464844 277.34138672 142.86621094 277.35400391 C136.21528537 277.37201183 129.5024203 276.84441823 124.41308594 272.12939453 C123.07617188 269.53588867 123.07617188 269.53588867 121.89746094 266.41455078 C121.45490967 265.2630957 121.0123584 264.11164063 120.55639648 262.92529297 C120.096604 261.69327148 119.63681152 260.46125 119.16308594 259.19189453 C118.67717877 257.91697807 118.18994438 256.6425667 117.70141602 255.36865234 C116.72331035 252.81615814 115.75035038 250.26179517 114.78076172 247.70605469 C112.94547934 242.906539 111.02977536 238.14173913 109.10058594 233.37939453 C106.72908316 227.49080733 104.43366083 221.58116327 102.22558594 215.62939453 C90.63249581 183.73867438 90.63249581 183.73867438 67.41308594 160.12939453 C56.54725996 155.20965113 46.72235833 154.47250968 34.97558594 154.81689453 C33.45413914 154.84206523 31.93265117 154.86486259 30.41113281 154.88525391 C26.74423734 154.93942589 23.07894229 155.02518712 19.41308594 155.12939453 C19.41446863 156.01426528 19.41446863 156.01426528 19.41587925 156.91701221 C19.43795278 171.26346167 19.45450644 185.60990962 19.46489811 199.95637226 C19.47005687 206.8941795 19.47709158 213.83197542 19.48852539 220.76977539 C19.4995478 227.46112919 19.50536516 234.15246877 19.50796318 240.84383202 C19.50981541 243.40078098 19.51343217 245.95772927 19.51881599 248.51467323 C19.52604117 252.08718908 19.52707625 255.6596558 19.52661133 259.23217773 C19.5302066 260.29672684 19.53380188 261.36127594 19.5375061 262.45808411 C19.53613144 263.42983582 19.53475677 264.40158752 19.53334045 265.40278625 C19.53426225 266.24807042 19.53518404 267.09335459 19.53613377 267.96425343 C19.41308594 270.12939453 19.41308594 270.12939453 18.41308594 273.12939453 C9.66739332 278.41748774 -2.47558031 278.56321065 -12.27441406 276.25439453 C-15.58691406 275.12939453 -15.58691406 275.12939453 -18.58691406 273.12939453 C-19.51699607 270.33914851 -19.71368728 268.66875805 -19.71834183 265.78734398 C-19.72218297 264.89517186 -19.72602412 264.00299973 -19.72998166 263.08379209 C-19.72911518 262.10258693 -19.7282487 261.12138177 -19.72735596 260.11044312 C-19.73032708 259.06884053 -19.7332982 258.02723794 -19.73635936 256.95407164 C-19.74506506 253.4465866 -19.7465562 249.93913562 -19.74804688 246.43164062 C-19.75267379 243.92366462 -19.75769827 241.41568932 -19.76309204 238.90771484 C-19.77623173 232.08105936 -19.78270089 225.25441513 -19.7871027 218.42774916 C-19.78986534 214.16403676 -19.79410281 209.90032662 -19.79860687 205.63661575 C-19.81080127 193.82926005 -19.82109937 182.02190616 -19.82448196 170.2145443 C-19.82470153 169.45870524 -19.8249211 168.70286618 -19.82514732 167.92412291 C-19.82536559 167.16647966 -19.82558387 166.4088364 -19.82580876 165.62823427 C-19.82625223 164.09297649 -19.82669879 162.55771871 -19.82714844 161.02246094 C-19.82736987 160.26092085 -19.8275913 159.49938077 -19.82781944 158.71476372 C-19.83176505 146.38287471 -19.84921105 134.05104488 -19.87250796 121.71917872 C-19.89623925 109.05498896 -19.90868467 96.39082886 -19.90984988 83.7266165 C-19.91076579 76.61752007 -19.91649656 69.50850068 -19.93466949 62.39942551 C-19.95170942 55.70998569 -19.95330978 49.02071686 -19.94453049 42.33125305 C-19.94375961 39.87748956 -19.94810948 37.42371824 -19.95798874 34.96997452 C-19.97069703 31.61655828 -19.96483696 28.26366058 -19.95440674 24.9102478 C-19.96246314 23.94242697 -19.97051955 22.97460614 -19.97882009 21.9774574 C-19.9355969 16.02302071 -19.30110874 10.5157596 -16.58691406 5.12939453 C-11.43575502 0.6501258 -6.62786209 0.00548354 0 0 Z M18.41308594 33.12939453 C18.41308594 62.49939453 18.41308594 91.86939453 18.41308594 122.12939453 C25.65246094 122.21189453 32.89183594 122.29439453 40.35058594 122.37939453 C42.59734131 122.41581055 44.84409668 122.45222656 47.15893555 122.48974609 C65.72213154 122.66538239 82.97440214 120.86936119 97.35058594 107.81689453 C106.28675477 98.09608648 107.94133095 86.00932388 107.65527344 73.38720703 C107.15397347 62.21467004 103.60372548 52.30694604 95.56542969 44.28564453 C83.64134279 34.68761155 69.59852907 32.77816736 54.74121094 32.93408203 C53.34394775 32.93710327 53.34394775 32.93710327 51.91845703 32.94018555 C48.49994857 32.9505041 45.08151132 32.97842424 41.66308594 33.00439453 C30.15433594 33.06626953 30.15433594 33.06626953 18.41308594 33.12939453 Z " fill="#001C23" transform="translate(72.5869140625,34.87060546875)"/>
<path d="M0 0 C2.72433029 2.99241295 3.37737216 4.94596635 3.39872742 8.96075439 C3.41126556 9.95912323 3.42380371 10.95749207 3.4367218 11.9861145 C3.43528671 13.07512054 3.43385162 14.16412659 3.43237305 15.28613281 C3.44766052 17.01339096 3.44766052 17.01339096 3.46325684 18.77554321 C3.49347082 22.5847861 3.5026659 26.39377786 3.51171875 30.203125 C3.52855915 32.84300579 3.54670851 35.48287853 3.56611633 38.1227417 C3.60978303 44.36287521 3.63832885 50.60298258 3.66143972 56.84322238 C3.68849055 63.94845693 3.73240208 71.05355599 3.77772844 78.15869379 C3.87057702 92.77238311 3.94225677 107.38613035 4 122 C5.26956874 120.58467952 6.53726968 119.16768346 7.80419922 117.75 C8.86343094 116.56664062 8.86343094 116.56664062 9.94406128 115.359375 C12.84473539 112.03058999 15.48867003 108.53894941 18.125 105 C22.61476641 99.04709795 27.22642019 93.22763185 32 87.5 C37.3021036 81.13467967 42.38431577 74.63598213 47.38232422 68.0300293 C51.29635547 62.87345796 55.36568546 57.89582401 59.54296875 52.94921875 C64.16147308 47.40554503 68.56457537 41.69037876 73 36 C80.43611294 26.46970084 87.97919314 17.03496769 95.63769531 7.68212891 C96.85703125 6.1765331 98.04589676 4.6463788 99.23046875 3.11328125 C102.60352876 -0.91503104 107.01031096 -1.29640108 112 -2 C120.75589207 -2.47182009 128.8473261 -2.65464692 137 1 C139 3 139 3 139.37890625 6.22265625 C138.92466964 10.7509738 137.61290947 12.78840228 134.9375 16.4375 C134.52628906 17.00388184 134.11507813 17.57026367 133.69140625 18.15380859 C130.90688969 21.93820008 127.95411312 25.52780481 124.79296875 29 C122.71844092 31.31407026 120.76802827 33.70955395 118.8125 36.125 C115.32242871 40.42092816 111.74769896 44.62906923 108.125 48.8125 C104.06752897 53.50272259 100.16715504 58.28059956 96.375 63.1875 C92.3301451 68.41900898 88.03931877 73.3055508 83.53515625 78.15234375 C80.1841701 81.91639445 77.12488292 85.87483325 74.04833984 89.86352539 C70.54873977 94.37466053 66.81689684 98.6063773 62.94140625 102.80078125 C61.1484779 104.83180471 59.59135138 106.89189638 58.0625 109.125 C57.381875 110.07375 56.70125 111.0225 56 112 C55.34 112 54.68 112 54 112 C53.76539063 112.71542969 53.53078125 113.43085938 53.2890625 114.16796875 C51.77628441 117.49149637 49.86191333 119.64795001 47.375 122.3125 C46.55773437 123.19550781 45.74046875 124.07851562 44.8984375 124.98828125 C44.27195312 125.65214844 43.64546875 126.31601563 43 127 C46.84218628 133.10229586 51.11561224 138.6569678 55.72265625 144.19921875 C58.55860921 147.6870031 61.17700213 151.30180612 63.796875 154.953125 C66.3459137 158.47839128 68.94835289 161.96039312 71.5625 165.4375 C72.06716797 166.109021 72.57183594 166.78054199 73.09179688 167.47241211 C74.16321748 168.89760679 75.2348385 170.32265081 76.30664062 171.74755859 C78.68348271 174.90914237 81.05637516 178.07368129 83.42919922 181.23828125 C84.69363784 182.92463651 85.95828923 184.61083225 87.22314453 186.296875 C90.39344893 190.52287548 93.56197421 194.75018578 96.7265625 198.98046875 C103.13203307 207.53880483 109.570318 216.06971548 116.0625 224.5625 C121.30033049 231.42148782 126.4962105 238.30902444 131.625 245.25 C132.45849976 246.37450562 132.45849976 246.37450562 133.30883789 247.52172852 C145.23934044 263.73451031 145.23934044 263.73451031 145 269 C143.5625 271.75 143.5625 271.75 141 274 C135.23495479 275.80275029 130.01377456 276.31157448 124 276.25 C123.24460937 276.25773437 122.48921875 276.26546875 121.7109375 276.2734375 C113.23895139 276.24432415 107.21367464 275.17900979 101 269 C99.29816671 266.83280053 97.72520334 264.71088763 96.1875 262.4375 C95.31240218 261.17884936 94.43607949 259.92104953 93.55859375 258.6640625 C93.12659668 258.04176758 92.69459961 257.41947266 92.24951172 256.77832031 C90.47129812 254.24754504 88.61570783 251.77926455 86.75 249.3125 C80.99843146 241.6911636 75.34821924 233.9956144 69.69287109 226.30273438 C68.16710302 224.22730253 66.64027609 222.15265426 65.11328125 220.078125 C60.78538618 214.19243782 56.48319843 208.2896081 52.21582031 202.35986328 C46.93981477 195.02861518 41.59967308 187.75407466 36.16381836 180.54052734 C32.81785859 176.09885035 29.52506467 171.62288352 26.265625 167.1171875 C23.15363095 162.83551293 20.01470523 158.57387904 16.875 154.3125 C16.2886377 153.51610107 15.70227539 152.71970215 15.09814453 151.89916992 C14.52692871 151.12420166 13.95571289 150.3492334 13.3671875 149.55078125 C12.61091064 148.52464722 12.61091064 148.52464722 11.83935547 147.4777832 C10.19442348 145.26190654 8.54128785 143.05256055 6.88504028 140.84513855 C6.34476259 140.12499667 5.8044849 139.40485479 5.24783516 138.66289043 C4.83604956 138.11413659 4.42426395 137.56538275 4 137 C4.00037703 137.68691296 4.00075405 138.37382591 4.0011425 139.08155441 C4.0082574 155.79022816 3.98238343 172.49849121 3.9197216 189.20704269 C3.89021558 197.28718574 3.87190505 205.36706548 3.87988281 213.44726562 C3.88680737 220.48942298 3.87279488 227.53117292 3.83356392 234.57323003 C3.81352084 238.3026302 3.80401495 242.03139042 3.81957626 245.76082611 C3.83655038 249.9228243 3.80678303 254.08322198 3.77294922 258.24511719 C3.78517014 259.48373505 3.79739105 260.72235291 3.8099823 261.99850464 C3.76412597 265.11665172 3.67736849 267.95634136 3 271 C-3.244766 276.9984941 -11.33221832 276.22538822 -19.5078125 276.15625 C-29.74271963 275.69831232 -29.74271963 275.69831232 -33.71468604 272.70991993 C-35.37951984 270.49510505 -35.37586865 269.2103578 -35.37752342 266.45378113 C-35.38534666 265.51610806 -35.39316991 264.578435 -35.40123022 263.6123476 C-35.39453805 262.58035834 -35.38784589 261.54836908 -35.38095093 260.48510742 C-35.3856309 259.39026881 -35.39031087 258.2954302 -35.39513266 257.16741467 C-35.40714762 253.47997799 -35.39759987 249.79290852 -35.38818359 246.10546875 C-35.39224641 243.46952215 -35.39747765 240.8336013 -35.40411377 238.19766235 C-35.41747283 231.77008202 -35.41456374 225.34260662 -35.40587585 218.91502213 C-35.39910823 213.69247464 -35.39817858 208.46995662 -35.4014473 203.24740601 C-35.401907 202.50488183 -35.40236669 201.76235766 -35.40284032 200.99733275 C-35.40379947 199.48903854 -35.40477211 197.98074433 -35.4057581 196.47245014 C-35.41431836 182.3200466 -35.40446791 168.1677013 -35.388357 154.01530731 C-35.37495323 141.86466788 -35.37728114 129.71411443 -35.39111328 117.56347656 C-35.40715789 103.46266545 -35.41349432 89.36190543 -35.40427649 75.26108646 C-35.40332082 73.75825565 -35.4023777 72.25542483 -35.4014473 70.75259399 C-35.40098447 70.01311954 -35.40052164 69.27364509 -35.40004479 68.51176232 C-35.39745154 63.29382967 -35.4018331 58.07592935 -35.40888596 52.85800171 C-35.41728875 46.50144665 -35.41504667 40.14500277 -35.39904372 33.78846049 C-35.3911444 30.5435178 -35.38970486 27.29879959 -35.39799118 24.05385208 C-35.40613788 20.540678 -35.39596812 17.02803259 -35.38095093 13.51489258 C-35.38764309 12.48290332 -35.39433526 11.45091406 -35.40123022 10.3876524 C-35.39340697 9.44997933 -35.38558373 8.51230627 -35.37752342 7.54621887 C-35.37703637 6.73486386 -35.37654931 5.92350885 -35.37604749 5.08756733 C-34.89922084 2.44054068 -34.13248284 1.60441827 -32 0 C-22.64961896 -2.91241377 -9.16034376 -4.28695999 0 0 Z " fill="#001C23" transform="translate(899,36)"/>
<path d="M0 0 C4.81182558 3.5371698 8.17657287 7.39099422 11.359375 12.421875 C12.2875 11.596875 13.215625 10.771875 14.171875 9.921875 C15.56093841 8.74715604 16.95763076 7.58143306 18.359375 6.421875 C19.17019531 5.74898437 19.98101563 5.07609375 20.81640625 4.3828125 C31.64592235 -4.08418837 42.7048963 -6.84978774 56.359375 -5.578125 C66.65874524 -4.08197783 73.49195508 0.79486146 80.171875 8.609375 C86.82658632 17.62643163 88.4892851 28.63871322 88.55224609 39.58276367 C88.56451233 40.77653877 88.56451233 40.77653877 88.57702637 41.99443054 C88.60170157 44.60956084 88.61834092 47.22463794 88.6328125 49.83984375 C88.63813618 50.73526697 88.64345985 51.63069019 88.64894485 52.55324745 C88.67558531 57.28345506 88.694998 62.01363698 88.70947266 66.74389648 C88.7228635 70.65982147 88.75082264 74.57523172 88.79150391 78.4909668 C88.84067335 83.224703 88.86557217 87.95796917 88.87269974 92.69194984 C88.87942843 94.4953558 88.89469237 96.29875057 88.91859055 98.10201073 C88.95006423 100.61829514 88.95030785 103.13274198 88.94287109 105.64916992 C88.95927643 106.39571838 88.97568176 107.14226685 88.99258423 107.91143799 C88.96737671 109.9884491 88.96737671 109.9884491 88.359375 113.421875 C82.62837901 118.19370739 74.49694911 117.88385391 67.359375 117.421875 C63.9601379 116.99331789 60.59609793 116.56604738 57.359375 115.421875 C54.89147533 111.7200255 55.10835781 109.86638694 55.10400391 105.44702148 C55.09857323 104.38781242 55.09857323 104.38781242 55.09303284 103.3072052 C55.08614023 101.77342966 55.08363315 100.2396296 55.08498001 98.70583916 C55.08594641 96.27052705 55.07298679 93.83565502 55.05599976 91.40040588 C55.00978329 84.47620126 54.98515575 77.55203906 54.97851562 70.62768555 C54.97347236 66.3900208 54.94907342 62.1528106 54.91318893 57.91530037 C54.9034484 56.30755417 54.90102733 54.69974494 54.90636063 53.09197807 C54.97807191 40.25716352 54.97807191 40.25716352 50.359375 28.421875 C47.00769762 25.14814361 44.42863423 24.19171954 39.859375 23.984375 C31.24398968 24.44462931 25.48936032 30.12231659 19.76693726 36.07969666 C17.79060725 39.36830242 17.99477908 41.89054105 18.00634766 45.71313477 C18.00418747 46.44041779 18.00202728 47.16770081 17.99980164 47.91702271 C17.99671926 49.49228021 18.00030698 51.06756183 18.00981522 52.64279366 C18.02355819 55.13516942 18.0171149 57.62674946 18.00497437 60.11912537 C17.97401069 67.20341242 17.97893043 74.28751342 17.99902344 81.37182617 C18.00992366 85.7078941 17.99679129 90.04336231 17.96912766 94.37934685 C17.96367852 96.03197797 17.96777293 97.68466878 17.98152542 99.33725166 C18.00051646 101.64550649 17.98921361 103.9517903 17.97119141 106.26000977 C17.97477158 108.2304702 17.97477158 108.2304702 17.97842407 110.24073792 C17.359375 113.421875 17.359375 113.421875 15.02035522 115.32652283 C6.46405393 118.84859455 -4.93370177 118.46179216 -13.640625 115.421875 C-16.5054889 112.5570111 -15.89846308 110.57329988 -15.91186523 106.56054688 C-15.91709198 105.85455353 -15.92231873 105.14856018 -15.92770386 104.4211731 C-15.93795921 102.88466113 -15.94372693 101.34811428 -15.94558525 99.81156921 C-15.94924649 97.37213982 -15.96597075 94.93311793 -15.98634338 92.49377441 C-16.04174707 85.55679958 -16.07229299 78.61976209 -16.09692383 71.68261719 C-16.11289691 67.43968095 -16.1432288 63.19702762 -16.18168831 58.95423889 C-16.19326594 57.34370454 -16.19926802 55.7331193 -16.19936943 54.12254333 C-15.70241033 39.36062779 -15.70241033 39.36062779 -22.203125 26.859375 C-26.84266386 24.1232367 -30.29887415 23.94947527 -35.640625 24.421875 C-42.41852715 26.68117572 -48.71260354 32.52984281 -52.640625 38.421875 C-52.93708374 41.73989223 -52.93708374 41.73989223 -52.88012695 45.59960938 C-52.88214111 46.32674637 -52.88415527 47.05388336 -52.88623047 47.80305481 C-52.88977462 49.38105387 -52.88901054 50.95906713 -52.88445473 52.5370636 C-52.87886632 55.03346162 -52.88801129 57.52939422 -52.9016571 60.02575684 C-52.93881183 67.12282396 -52.95730336 74.21973292 -52.94604492 81.31689453 C-52.94020168 85.65832882 -52.958414 89.99910767 -52.99193382 94.34040833 C-52.99990066 95.99581572 -52.99859342 97.65129431 -52.98790932 99.3066864 C-52.97361975 101.61989922 -52.98980928 103.93104285 -53.01293945 106.24414062 C-53.01356888 107.56079712 -53.0141983 108.87745361 -53.0148468 110.23400879 C-53.640625 113.421875 -53.640625 113.421875 -55.9806366 115.32751465 C-64.53748619 118.84793486 -75.93367915 118.46180006 -84.640625 115.421875 C-86.640625 113.421875 -86.640625 113.421875 -86.88951397 111.43501377 C-86.8889692 110.6148273 -86.88842443 109.79464083 -86.88786316 108.94960022 C-86.89205765 108.00880112 -86.89625214 107.06800201 -86.90057373 106.09869385 C-86.89495422 105.06331482 -86.88933472 104.02793579 -86.88354492 102.96118164 C-86.88544327 101.87330856 -86.88734161 100.78543549 -86.88929749 99.66459656 C-86.89301462 96.0536691 -86.88228699 92.44294096 -86.87109375 88.83203125 C-86.86990228 86.33100915 -86.86944872 83.8299866 -86.8697052 81.32896423 C-86.86813867 76.08069531 -86.86007844 70.8324781 -86.84643555 65.58422852 C-86.83071768 59.51532189 -86.82543714 53.44647856 -86.8261711 47.37755305 C-86.82678147 41.54269771 -86.82156668 35.70786368 -86.81337929 29.87301445 C-86.81019057 27.3886369 -86.80822474 24.90425749 -86.80748558 22.41987801 C-86.80532369 18.95054046 -86.79658235 15.48128325 -86.78588867 12.01196289 C-86.78634186 10.97860809 -86.78679504 9.9452533 -86.78726196 8.88058472 C-86.78086449 7.46515633 -86.78086449 7.46515633 -86.77433777 6.02113342 C-86.77266192 5.20056993 -86.77098608 4.38000643 -86.76925945 3.53457737 C-86.640625 1.421875 -86.640625 1.421875 -85.640625 -1.578125 C-78.45402303 -4.68143039 -68.96767341 -4.87663021 -61.453125 -2.765625 C-58.07612658 -0.13907068 -57.98247036 1.012546 -57.203125 5.109375 C-56.98535613 6.87674131 -56.78825741 8.64727318 -56.640625 10.421875 C-56.08375 9.90238281 -55.526875 9.38289062 -54.953125 8.84765625 C-39.48163076 -5.29098966 -19.43972644 -11.61782467 0 0 Z " fill="#001C23" transform="translate(1771.640625,189.578125)"/>
<path d="M0 0 C1.10118164 -0.0309375 1.10118164 -0.0309375 2.22460938 -0.0625 C7.45682153 -0.09964081 11.02331398 0.86058517 15.6875 3.25 C17.43050973 4.99300973 16.85756086 7.40695189 16.89282227 9.77954102 C16.9227401 11.55126427 16.9227401 11.55126427 16.95326233 13.35877991 C16.96997482 14.6441716 16.98668732 15.92956329 17.00390625 17.25390625 C17.02468735 18.56205795 17.04546844 19.87020966 17.06687927 21.21800232 C17.122163 24.70155447 17.17154431 28.1851666 17.21972656 31.66882324 C17.26989574 35.2213273 17.32560567 38.7737439 17.38085938 42.32617188 C17.48851791 49.30070546 17.58994567 56.27531798 17.6875 63.25 C18.59133423 62.53227417 18.59133423 62.53227417 19.51342773 61.80004883 C20.31208252 61.17122803 21.1107373 60.54240723 21.93359375 59.89453125 C22.7217749 59.27167236 23.50995605 58.64881348 24.32202148 58.00708008 C34.09822408 50.74530589 44.73410336 49.24326404 56.6875 50.25 C67.73226279 52.32244425 75.57265347 56.93337715 82.5 65.75 C90.24940616 77.97469893 90.30317609 91.78635166 90.25390625 105.765625 C90.25915386 107.59788323 90.26543445 109.43013876 90.27268982 111.26239014 C90.28300988 115.06779884 90.27864433 118.87283144 90.26391602 122.67822266 C90.2465756 127.55765169 90.2704528 132.43591981 90.30540562 137.31521988 C90.3273136 141.08300591 90.32595703 144.8505098 90.3176403 148.61833954 C90.31682031 150.4189152 90.32369293 152.21951147 90.33841133 154.02002716 C90.35577358 156.52353667 90.34139645 159.02489866 90.31860352 161.52832031 C90.33029572 162.27008011 90.34198792 163.0118399 90.35403442 163.77607727 C90.31568909 165.83917236 90.31568909 165.83917236 89.6875 169.25 C83.80449587 174.06172557 75.9424199 173.69482721 68.6875 173.25 C59.31754847 171.88004847 59.31754847 171.88004847 57.6875 170.25 C57.57402673 168.1253694 57.53062512 165.99697781 57.51391602 163.86938477 C57.507229 163.20255173 57.50054199 162.53571869 57.49365234 161.84867859 C57.47956618 160.39454057 57.46768359 158.94037997 57.45770454 157.48620796 C57.44130508 155.1771608 57.41806087 152.86827717 57.39280701 150.55931091 C57.32205143 143.99185363 57.26228056 137.42432447 57.21069336 130.85668945 C57.17867515 126.84187567 57.13732828 122.82724134 57.09049797 118.81257439 C57.07459444 117.28856622 57.0622199 115.76451662 57.05359077 114.24044991 C57.24728336 98.56598278 57.24728336 98.56598278 51.6875 84.25 C48.21199708 81.02880217 45.4517774 79.96379159 40.8125 79.75 C32.14655229 80.11488201 25.97973188 84.88879797 20.07922363 90.91291809 C17.2102578 94.41637439 17.07824383 97.22831557 17.10742188 101.76831055 C17.10496964 102.49588562 17.1025174 103.22346069 17.09999084 103.9730835 C17.09782805 105.54287193 17.10702594 107.1127094 17.1264801 108.68237877 C17.15661453 111.16677179 17.15550171 113.64944766 17.1463623 116.13398743 C17.13246886 121.40204422 17.15718303 126.66953629 17.1875 131.9375 C17.22262185 138.05369896 17.24192536 144.16906712 17.21937561 150.28534889 C17.21875705 152.73382793 17.24795541 155.18080978 17.27819824 157.6290741 C17.27612442 159.12600983 17.27266014 160.6229445 17.26757812 162.11987305 C17.27599731 163.42748093 17.2844165 164.73508881 17.29309082 166.08232117 C16.6875 169.25 16.6875 169.25 14.31921387 171.15266418 C5.59450475 174.79057327 -5.4033071 174.02555625 -14.3125 171.25 C-17.10999996 168.45250004 -16.56899409 166.73177783 -16.57992554 162.81033325 C-16.58445665 162.14174408 -16.58898776 161.4731549 -16.59365618 160.78430545 C-16.60636424 158.53338041 -16.60467574 156.28269533 -16.60302734 154.03173828 C-16.60900864 152.42218716 -16.61581326 150.81263892 -16.62338257 149.20309448 C-16.64109113 144.82290348 -16.64574 140.44279056 -16.64701414 136.06256723 C-16.6489103 132.40940294 -16.65626463 128.75625696 -16.66335833 125.1030997 C-16.6796586 116.48555317 -16.68452582 107.86804845 -16.68310547 99.25048828 C-16.68190382 90.35382571 -16.70300637 81.45740567 -16.7345928 72.56080449 C-16.76072444 64.92933067 -16.77147407 57.29793619 -16.77019465 49.66641796 C-16.76968407 45.10549905 -16.77542008 40.54479551 -16.79655075 35.98392105 C-16.81588072 31.69437184 -16.81609383 27.40524458 -16.80151749 23.11568069 C-16.79942169 21.54027187 -16.80417603 19.964837 -16.8162384 18.38947296 C-16.83162943 16.24036043 -16.82242578 14.09271399 -16.80697632 11.94363403 C-16.80806585 10.74052645 -16.80915539 9.53741886 -16.81027794 8.29785347 C-16.21389626 4.64625738 -15.19523717 3.49016542 -12.3125 1.25 C-8.36134813 -0.2004046 -4.16503224 0.02879884 0 0 Z " fill="#001C23" transform="translate(1505.3125,133.75)"/>
<path d="M0 0 C0.7425 0.845625 1.485 1.69125 2.25 2.5625 C2.72953125 3.06265625 3.2090625 3.5628125 3.703125 4.078125 C16.73651697 18.16472036 17.92339888 37.74461848 17.38183594 56.00732422 C16.52560919 72.60226713 10.39476339 87.16988 -1.91015625 98.5625 C-15.81962865 109.94520758 -33.02880824 113.83630002 -50.77197266 112.11523438 C-66.68711845 110.24152015 -80.36097113 105.26908146 -90.75 92.5625 C-102.08888588 76.18762849 -104.01952657 54.11958803 -100.625 34.9375 C-96.84929916 18.41222329 -90.14857259 5.25241718 -75.75 -4.4375 C-75.05261719 -4.91058594 -74.35523438 -5.38367188 -73.63671875 -5.87109375 C-52.92653815 -18.63038234 -18.11156962 -16.05343671 0 0 Z M-58.625 18.75 C-67.07727305 29.93683198 -68.98202062 43.83231468 -67.75 57.5625 C-66.47283202 65.85258587 -64.837609 74.474891 -58.75 80.5625 C-51.95248103 85.36250243 -44.63422834 86.21827113 -36.5625 84.875 C-29.37290517 83.19446003 -25.0567203 79.49879014 -20.75 73.5625 C-14.78289897 62.05451944 -15.16524484 44.53708925 -17.9375 32.0234375 C-20.37477991 24.64129163 -24.01406416 19.24281721 -30.8203125 15.40234375 C-39.7130611 11.53201794 -50.94956927 12.90999836 -58.625 18.75 Z " fill="#001C23" transform="translate(821.75,203.4375)"/>
<path d="M0 0 C9.55004045 8.32240587 12.12964263 18.86959085 13.33984375 31.0390625 C13.44094594 33.71570771 13.50648171 36.36782371 13.5168457 39.04394531 C13.5234169 39.79946686 13.5299881 40.5549884 13.53675842 41.33340454 C13.55627645 43.80300016 13.56809721 46.27253603 13.578125 48.7421875 C13.58220053 49.59039818 13.58627605 50.43860886 13.59047508 51.31252289 C13.61123076 55.79102832 13.62558485 60.26950395 13.63500977 64.74804688 C13.6461321 69.37065296 13.6806279 73.99278536 13.72018147 78.61522293 C13.74628431 82.17711293 13.75469527 85.73888793 13.75829124 89.30086517 C13.76316324 91.00573729 13.77479471 92.71060406 13.79332924 94.41538239 C13.81761634 96.79456474 13.81677699 99.17249009 13.80981445 101.55175781 C13.82262451 102.25416595 13.83543457 102.9565741 13.84863281 103.68026733 C13.81270965 107.04422837 13.55349851 108.76174913 11.47453308 111.46014404 C6.52042948 115.12443631 -0.72659247 114.4321377 -6.66015625 114.0390625 C-12.84319196 112.85602679 -12.84319196 112.85602679 -14.66015625 111.0390625 C-15.11475483 108.38443129 -15.36258863 105.71717112 -15.66015625 103.0390625 C-16.47806641 103.72742188 -16.47806641 103.72742188 -17.3125 104.4296875 C-28.43928423 113.48327603 -40.27090832 117.39493981 -54.66015625 116.0390625 C-66.24565711 113.93478164 -75.49914668 110.7460859 -82.59765625 100.9765625 C-88.73531494 91.79183922 -89.7377431 81.85860123 -87.97265625 71.1015625 C-85.73932651 61.05927979 -80.3433317 54.50436999 -71.89453125 48.859375 C-59.30259588 41.79694168 -44.18593646 40.85535294 -30.09765625 40.9765625 C-28.58461914 40.98333008 -28.58461914 40.98333008 -27.04101562 40.99023438 C-24.58066478 41.00189481 -22.12044386 41.01825872 -19.66015625 41.0390625 C-19.83870193 29.76140668 -19.83870193 29.76140668 -25.39453125 20.4375 C-32.61681524 15.97960747 -42.36623709 16.70669759 -50.3828125 18.203125 C-57.16814867 19.93383053 -63.61516743 22.47541959 -69.83984375 25.671875 C-73.10898783 27.25664013 -75.07405992 27.59689971 -78.66015625 27.0390625 C-82.54801764 23.41932948 -82.58349038 19.22738345 -82.91015625 14.1640625 C-82.81280016 9.8560556 -81.91895961 6.78020557 -79.66015625 3.0390625 C-77.19976759 0.91498596 -74.56855033 -0.52918947 -71.66015625 -1.9609375 C-70.93957031 -2.32058594 -70.21898437 -2.68023437 -69.4765625 -3.05078125 C-49.05575497 -12.17643723 -18.84712357 -13.32052343 0 0 Z M-53.72265625 68.7890625 C-56.63705367 73.67772914 -57.08950018 77.70917046 -56.03515625 83.2265625 C-54.92287743 87.13088816 -53.16361337 88.90280816 -49.66015625 91.0390625 C-43.2959887 93.16045168 -37.44937732 92.76610338 -31.41015625 89.8515625 C-24.4951093 86.04189946 -24.4951093 86.04189946 -19.66015625 80.0390625 C-19.58820756 77.15535917 -19.56723917 74.29666586 -19.59765625 71.4140625 C-19.60216797 70.61226563 -19.60667969 69.81046875 -19.61132812 68.984375 C-19.62312457 67.00257244 -19.6410602 65.02080817 -19.66015625 63.0390625 C-22.95164735 62.95048387 -26.2428243 62.8981521 -29.53515625 62.8515625 C-30.45296875 62.82642578 -31.37078125 62.80128906 -32.31640625 62.77539062 C-39.6763468 62.69764477 -48.38959029 63.05532824 -53.72265625 68.7890625 Z " fill="#001C23" transform="translate(1969.66015625,192.9609375)"/>
<path d="M0 0 C9.65823674 7.96224322 12.63267403 18.66507671 14.11328125 30.7421875 C14.21628633 33.41161565 14.28013556 36.05622668 14.2902832 38.7253418 C14.2968544 39.49047089 14.3034256 40.25559998 14.31019592 41.04391479 C14.32975468 43.55141317 14.34154535 46.05885251 14.3515625 48.56640625 C14.35563803 49.42656656 14.35971355 50.28672688 14.36391258 51.17295265 C14.38468777 55.7162921 14.39903243 60.259602 14.40844727 64.80297852 C14.41956099 69.49399185 14.4540416 74.1845373 14.49361897 78.87538433 C14.51972385 82.48788855 14.52813306 86.10027939 14.53172874 89.71286964 C14.53660186 91.44286106 14.54823648 93.17284717 14.56676674 94.9027462 C14.59105344 97.31795449 14.59021425 99.73192442 14.58325195 102.1472168 C14.59606201 102.86054672 14.60887207 103.57387665 14.62207031 104.30882263 C14.5864381 107.69613091 14.33802565 109.44966955 12.24797058 112.16999817 C7.286995 115.82373493 0.04740378 115.13529972 -5.88671875 114.7421875 C-12.06975446 113.55915179 -12.06975446 113.55915179 -13.88671875 111.7421875 C-14.34131733 109.08755629 -14.58915113 106.42029612 -14.88671875 103.7421875 C-15.70462891 104.43054688 -15.70462891 104.43054688 -16.5390625 105.1328125 C-27.66674487 114.18713183 -39.49677849 118.09653482 -53.88671875 116.7421875 C-62.61034921 115.17229081 -70.44973616 113.13498028 -76.88671875 106.7421875 C-77.52222656 106.12085938 -78.15773438 105.49953125 -78.8125 104.859375 C-85.72750791 97.55781385 -88.30575656 89.20129973 -88.09375 79.140625 C-87.13035633 67.97980022 -84.07941679 60.2165761 -75.6640625 52.77734375 C-59.59806356 40.42089254 -38.10794146 41.40277444 -18.88671875 41.7421875 C-19.06526443 30.46453168 -19.06526443 30.46453168 -24.62109375 21.140625 C-31.84337774 16.68273247 -41.59279959 17.40982259 -49.609375 18.90625 C-56.39471117 20.63695553 -62.84172993 23.17854459 -69.06640625 26.375 C-72.33555033 27.95976513 -74.30062242 28.30002471 -77.88671875 27.7421875 C-81.75410261 24.14151977 -81.78699089 19.95886734 -82.19921875 14.9296875 C-82.04396038 10.07101371 -81.18568485 6.42492594 -77.88671875 2.7421875 C-57.52679787 -11.64158394 -21.01967529 -14.20152851 0 0 Z M-53.01171875 69.1171875 C-55.84997238 73.12710455 -55.44755489 77.89206847 -55.453125 82.62109375 C-54.77563706 86.3542859 -53.49337061 88.03359953 -50.88671875 90.7421875 C-46.37081699 93.53142094 -41.01536897 93.46526755 -35.88671875 92.7421875 C-32.25885801 91.48431317 -29.14765491 89.75101128 -25.88671875 87.7421875 C-25.16613281 87.40058594 -24.44554687 87.05898438 -23.703125 86.70703125 C-21.20868496 85.22642801 -20.22547914 84.35471991 -18.88671875 81.7421875 C-18.04170352 75.78117173 -18.49163621 69.72486589 -18.88671875 63.7421875 C-22.17820985 63.65360887 -25.4693868 63.6012771 -28.76171875 63.5546875 C-29.67953125 63.52955078 -30.59734375 63.50441406 -31.54296875 63.47851562 C-39.37960892 63.39573421 -46.64337882 64.27724915 -53.01171875 69.1171875 Z " fill="#001C23" transform="translate(1141.88671875,192.2578125)"/>
<path d="M0 0 C9.87312601 8.21546094 12.68516889 18.46380985 14.1171875 30.76171875 C14.48897987 36.85742819 14.44778882 42.96955276 14.453125 49.07421875 C14.4595649 50.81868597 14.46629412 52.56315214 14.47329712 54.30761719 C14.48519053 57.93833934 14.48898535 61.56896681 14.48779297 65.19970703 C14.48758829 69.85137813 14.51507806 74.5024485 14.54933739 79.15397644 C14.57154519 82.74504399 14.57563268 86.3359643 14.57457352 89.92709351 C14.57693147 91.64311832 14.585766 93.35914708 14.60123825 95.07510376 C14.62080865 97.4658711 14.6151005 99.85530553 14.60302734 102.24609375 C14.61426636 102.95156845 14.62550537 103.65704315 14.63708496 104.38389587 C14.59383937 107.74949794 14.33158973 109.48279595 12.25479126 112.18457031 C7.5204893 115.6775923 0.79662155 115.16329489 -4.8828125 114.76171875 C-12.18609119 113.45844006 -12.18609119 113.45844006 -13.8828125 111.76171875 C-14.33741108 109.10708754 -14.58524488 106.43982737 -14.8828125 103.76171875 C-15.2953125 104.1484375 -15.7078125 104.53515625 -16.1328125 104.93359375 C-25.79686612 113.64849925 -37.62279444 117.50364439 -50.66796875 117.109375 C-60.40237073 116.05668754 -69.7719058 113.82380916 -76.8828125 106.76171875 C-77.51832031 106.14039063 -78.15382813 105.5190625 -78.80859375 104.87890625 C-85.75215469 97.54719594 -88.28676035 89.18819136 -88.09375 79.09375 C-87.21316786 69.35842519 -84.23314758 60.80728791 -77.03125 54.015625 C-63.58135628 43.27178559 -46.01275304 41.5573623 -29.3828125 41.69921875 C-28.36960937 41.70373047 -27.35640625 41.70824219 -26.3125 41.71289062 C-23.83587423 41.72457282 -21.35937593 41.74095293 -18.8828125 41.76171875 C-19.16531912 39.17708373 -19.4584351 36.5944074 -19.7578125 34.01171875 C-19.83644531 33.28210938 -19.91507813 32.5525 -19.99609375 31.80078125 C-20.57738384 26.48170514 -20.57738384 26.48170514 -22.8828125 21.76171875 C-32.31566025 16.45574189 -42.64424885 17.33804029 -52.8828125 19.76171875 C-58.468476 21.58421252 -63.83470572 23.70998824 -69.0625 26.39453125 C-72.33164408 27.97929638 -74.29671617 28.31955596 -77.8828125 27.76171875 C-81.80893684 23.78817745 -81.737626 19.35976207 -81.9765625 14.01953125 C-81.83835669 9.21687923 -81.35037976 6.21407738 -77.8828125 2.76171875 C-57.35637891 -11.57139436 -21.19300114 -14.16434588 0 0 Z M-52.4453125 68.76171875 C-55.85825481 73.51016022 -55.32602569 79.16410028 -54.8828125 84.76171875 C-53.55003503 88.315792 -52.39924908 89.39643434 -49.3203125 91.57421875 C-42.68292604 93.86713407 -37.0689408 93.64406239 -30.6953125 90.63671875 C-29.07873981 89.69946413 -27.47378503 88.74180032 -25.8828125 87.76171875 C-25.16222656 87.42011719 -24.44164062 87.07851563 -23.69921875 86.7265625 C-21.20477871 85.24595926 -20.22157289 84.37425116 -18.8828125 81.76171875 C-18.03779727 75.80070298 -18.48772996 69.74439714 -18.8828125 63.76171875 C-22.1743036 63.67314012 -25.46548055 63.62080835 -28.7578125 63.57421875 C-29.675625 63.54908203 -30.5934375 63.52394531 -31.5390625 63.49804688 C-38.93817219 63.41988727 -46.44430866 64.07800844 -52.4453125 68.76171875 Z " fill="#001C23" transform="translate(1347.8828125,192.23828125)"/>
<path d="M0 0 C8.62270602 8.14772645 11.79212332 18.08068862 12.29257202 29.77481079 C12.41378558 34.85411982 12.36956317 39.93167599 12.32421875 45.01171875 C12.31861078 46.87643591 12.31434638 48.74115754 12.31135559 50.60588074 C12.30000122 55.47039386 12.2706171 60.33463042 12.23724365 65.19903564 C12.20633782 70.18017844 12.19280678 75.16136671 12.17773438 80.14257812 C12.1457367 89.88423487 12.09465681 99.62568803 12.03125 109.3671875 C5.47690872 112.74688868 5.47690872 112.74688868 1.8671875 112.73046875 C1.13757813 112.72982422 0.40796875 112.72917969 -0.34375 112.72851562 C-1.4575 112.7043457 -1.4575 112.7043457 -2.59375 112.6796875 C-3.34398437 112.68291016 -4.09421875 112.68613281 -4.8671875 112.68945312 C-12.1421695 112.61850915 -12.1421695 112.61850915 -14.96875 110.3671875 C-16.08589584 107.74294869 -16.42244812 105.18974719 -16.96875 102.3671875 C-17.95101562 103.16382813 -17.95101562 103.16382813 -18.953125 103.9765625 C-29.1672677 111.88242437 -40.10719222 116.15952527 -53.12890625 115.11328125 C-64.3781526 113.65285278 -75.41588309 110.3514601 -82.7265625 101.15625 C-89.85613307 90.78909667 -90.3282573 80.71065064 -88.96875 68.3671875 C-86.60944667 59.71939887 -81.38860766 53.29085848 -73.96875 48.3671875 C-57.05136858 39.08207299 -38.65088199 39.9702151 -19.96875 40.3671875 C-20.22607276 38.15723913 -20.50022686 35.94924726 -20.78125 33.7421875 C-20.93207031 32.51242188 -21.08289063 31.28265625 -21.23828125 30.015625 C-22.20159571 25.20420413 -23.40144549 21.53261906 -27.40625 18.5546875 C-38.85455109 13.24937724 -51.77702347 16.66822035 -63.07861328 20.63525391 C-66.51839348 21.96726902 -69.7097198 23.73102894 -72.94921875 25.48046875 C-74.96875 26.3671875 -74.96875 26.3671875 -78.46875 26.4296875 C-80.96875 25.3671875 -80.96875 25.3671875 -82.10546875 23.765625 C-83.30449983 20.43438027 -83.27074467 17.46297853 -83.28125 13.9296875 C-83.29800781 12.63160156 -83.31476562 11.33351562 -83.33203125 9.99609375 C-82.88312775 5.51188571 -81.71674126 2.92142551 -78.34765625 -0.07421875 C-69.69721246 -5.41330986 -59.95315815 -8.07427074 -49.96875 -9.6328125 C-49.22753906 -9.7565625 -48.48632812 -9.8803125 -47.72265625 -10.0078125 C-31.84819619 -12.14939227 -12.69838897 -10.53160038 0 0 Z M-54.78125 67.8671875 C-57.99293105 71.92404777 -57.39867774 77.48164502 -56.96875 82.3671875 C-55.23063343 86.66673903 -53.05604459 88.31205904 -48.96875 90.3671875 C-41.16578945 91.47618701 -34.46829199 90.86897553 -27.96875 86.3671875 C-27.22238281 85.97402344 -26.47601562 85.58085937 -25.70703125 85.17578125 C-22.96146057 83.41727437 -21.60543801 82.21860488 -19.96875 79.3671875 C-18.98652762 73.42223075 -19.51349323 67.34243261 -19.96875 61.3671875 C-38.42407445 60.470716 -38.42407445 60.470716 -54.78125 67.8671875 Z " fill="#001C23" transform="translate(601.96875,200.6328125)"/>
<path d="M0 0 C11.56807697 11.23756048 14.56158309 24.90581006 14.83810616 40.5941534 C14.88523145 44.41429019 14.90960414 48.23430506 14.92578125 52.0546875 C14.92985678 52.87013157 14.9339323 53.68557564 14.93813133 54.52573013 C14.95886042 58.82802313 14.97322795 63.13028532 14.98266602 67.43261719 C14.99380704 71.87481928 15.02833104 76.316531 15.06783772 80.75855827 C15.09391558 84.18143673 15.10234907 87.60419538 15.10594749 91.02716446 C15.11082288 92.66587833 15.12246393 94.30458652 15.14098549 95.94320297 C15.16522853 98.2267036 15.1644421 100.5088917 15.1574707 102.79248047 C15.16333694 104.09103973 15.16920319 105.389599 15.17524719 106.72750854 C14.6875 109.875 14.6875 109.875 12.84562683 111.75515747 C7.85609188 114.34420523 3.29652134 114.05859956 -2.1875 114.0625 C-3.08597656 114.07474609 -3.98445313 114.08699219 -4.91015625 114.09960938 C-9.45810813 114.10968608 -13.21448671 114.10650926 -17.3125 111.875 C-19.19533155 109.99216845 -18.44743822 106.73909212 -18.4543457 104.23486328 C-18.45782013 103.54037582 -18.46129456 102.84588837 -18.46487427 102.13035583 C-18.47224654 100.61564058 -18.47758404 99.10091442 -18.48116493 97.58618546 C-18.48832611 95.18024207 -18.50399488 92.77450317 -18.52250671 90.36862183 C-18.57495685 83.52540081 -18.62284463 76.68228436 -18.63842773 69.83886719 C-18.64857913 65.65534271 -18.67809483 61.47232201 -18.71974754 57.28899765 C-18.73197431 55.70162668 -18.73719418 54.1141842 -18.73494911 52.52676773 C-18.65596922 37.03524663 -18.65596922 37.03524663 -25.75 23.6875 C-31.25478392 20.88682046 -36.26974111 20.86666448 -42.3125 21.875 C-45.87847112 23.34964971 -48.52781223 25.2191412 -51.3125 27.875 C-51.88226059 28.32727966 -52.45202118 28.77955933 -53.03904724 29.24554443 C-57.00342439 32.88356708 -58.70620672 35.89900578 -59.01233006 41.34987259 C-59.06862654 45.06639579 -58.97300178 48.76991321 -58.85546875 52.484375 C-58.83221978 54.09998808 -58.81269317 55.7156586 -58.79670715 57.33135986 C-58.74753447 61.56554662 -58.6597109 65.7979224 -58.55999756 70.03118896 C-58.40297662 76.81950923 -58.28879849 83.60811416 -58.20556068 90.39771271 C-58.16846909 92.76494289 -58.10484327 95.13043146 -58.03886414 97.49700928 C-58.01474836 98.94688331 -57.99157037 100.39677335 -57.96948242 101.84667969 C-57.93948654 103.11050476 -57.90949066 104.37432983 -57.87858582 105.67645264 C-58.3125 108.875 -58.3125 108.875 -60.1464386 111.25177002 C-64.75414309 114.70474881 -69.68898367 114.05858925 -75.1875 114.0625 C-76.08597656 114.07474609 -76.98445313 114.08699219 -77.91015625 114.09960938 C-82.45810813 114.10968608 -86.21448671 114.10650926 -90.3125 111.875 C-91.3125 110.875 -91.3125 110.875 -91.43554783 108.95595455 C-91.43462604 108.1088268 -91.43370424 107.26169905 -91.43275452 106.38890076 C-91.43412918 105.41989838 -91.43550385 104.450896 -91.43692017 103.45252991 C-91.43332489 102.38079025 -91.42972961 101.3090506 -91.42602539 100.20483398 C-91.42617142 99.08302734 -91.42631744 97.9612207 -91.4264679 96.80541992 C-91.4257682 93.07729189 -91.41797315 89.34921311 -91.41015625 85.62109375 C-91.40829227 83.04419482 -91.40686827 80.46729553 -91.40586853 77.89039612 C-91.40243342 71.78824885 -91.3945426 65.68612206 -91.38451904 59.58398253 C-91.37335689 52.6385075 -91.3678472 45.69303165 -91.36282361 38.74754989 C-91.35235996 24.45669034 -91.33476115 10.1658458 -91.3125 -4.125 C-88.31662299 -5.70405113 -86.31033529 -6.38038055 -82.90625 -6.390625 C-81.66681641 -6.39449219 -81.66681641 -6.39449219 -80.40234375 -6.3984375 C-79.54769531 -6.39070312 -78.69304687 -6.38296875 -77.8125 -6.375 C-76.53052734 -6.38660156 -76.53052734 -6.38660156 -75.22265625 -6.3984375 C-74.39636719 -6.39585937 -73.57007813 -6.39328125 -72.71875 -6.390625 C-71.96916016 -6.38836914 -71.21957031 -6.38611328 -70.44726562 -6.38378906 C-68.00292698 -6.08747171 -66.39934667 -5.41930108 -64.3125 -4.125 C-63.09556124 -1.69112247 -62.99290104 0.29338846 -62.75 3 C-62.62431641 4.36511719 -62.62431641 4.36511719 -62.49609375 5.7578125 C-62.43550781 6.45648438 -62.37492187 7.15515625 -62.3125 7.875 C-61.755625 7.35550781 -61.19875 6.83601562 -60.625 6.30078125 C-43.91456044 -8.97007652 -19.10116274 -16.16032603 0 0 Z " fill="#001C23" transform="translate(395.3125,199.125)"/>
<path d="M0 0 C0.83337891 -0.01611328 1.66675781 -0.03222656 2.52539062 -0.04882812 C7.63686794 -0.05286882 11.11181217 0.52641174 15.5625 3.3125 C16.5625 4.3125 16.5625 4.3125 16.67602539 6.72094727 C16.67078857 7.76307373 16.66555176 8.8052002 16.66015625 9.87890625 C16.65693359 11.00361328 16.65371094 12.12832031 16.65039062 13.28710938 C16.63782227 15.06311523 16.63782227 15.06311523 16.625 16.875 C16.62048828 18.06287109 16.61597656 19.25074219 16.61132812 20.47460938 C16.59949675 23.42062226 16.58301287 26.36653681 16.5625 29.3125 C17.26858398 29.29155273 17.97466797 29.27060547 18.70214844 29.24902344 C21.90545376 29.16580702 25.10853163 29.11382215 28.3125 29.0625 C29.97925781 29.01222656 29.97925781 29.01222656 31.6796875 28.9609375 C32.74960937 28.94804687 33.81953125 28.93515625 34.921875 28.921875 C35.90639648 28.90092773 36.89091797 28.87998047 37.90527344 28.85839844 C41.3095465 29.44016506 42.45083198 30.63609771 44.5625 33.3125 C46.50103922 40.42047714 46.03746068 47.43760921 43.5625 54.3125 C41.5625 56.3125 41.5625 56.3125 39.04052734 56.53955078 C38.0036377 56.52907715 36.96674805 56.51860352 35.8984375 56.5078125 C34.77695312 56.50136719 33.65546875 56.49492187 32.5 56.48828125 C31.324375 56.47152344 30.14875 56.45476562 28.9375 56.4375 C27.75414062 56.42847656 26.57078125 56.41945312 25.3515625 56.41015625 C22.42167477 56.38652812 19.4921866 56.35358514 16.5625 56.3125 C16.65527221 63.96245229 16.76263995 71.61210268 16.87988281 79.26171875 C16.91803082 81.86095603 16.95290774 84.46024356 16.984375 87.05957031 C17.03033429 90.80812467 17.08827744 94.55633734 17.1484375 98.3046875 C17.15998871 99.45613251 17.17153992 100.60757751 17.18344116 101.79391479 C17.30481271 108.51548684 17.96495868 114.77720848 19.5625 121.3125 C25.03211084 122.44885199 30.14893341 123.1170222 35.5625 121.3125 C39.125 121.125 39.125 121.125 42.5625 121.3125 C46.31687119 125.06687119 45.5100857 131.22831336 45.5625 136.3125 C44.86703079 144.09513162 44.86703079 144.09513162 41.80859375 146.94921875 C32.47773038 152.61264712 19.02516434 152.6396233 8.53125 150.7734375 C-0.46746018 148.30692356 -7.42287108 143.17435984 -12.125 135.0625 C-19.11491241 119.63855081 -16.67312867 99.72636633 -16.5625 83.25 C-16.55244696 80.62956072 -16.54332523 78.0091177 -16.53515625 75.38867188 C-16.51333441 69.02986487 -16.48004215 62.67120041 -16.4375 56.3125 C-17.41332031 56.34730469 -18.38914062 56.38210937 -19.39453125 56.41796875 C-21.30298828 56.45857422 -21.30298828 56.45857422 -23.25 56.5 C-25.14685547 56.55220703 -25.14685547 56.55220703 -27.08203125 56.60546875 C-30.4375 56.3125 -30.4375 56.3125 -32.35961914 55.08374023 C-34.51627024 51.53979828 -33.90638065 47.40598714 -33.875 43.375 C-33.9049707 42.0147168 -33.9049707 42.0147168 -33.93554688 40.62695312 C-33.93264731 36.68644263 -33.92178902 34.10079526 -31.83203125 30.69921875 C-28.62577028 28.84241183 -26.36843644 28.91526254 -22.6875 29.0625 C-21.51703125 29.09859375 -20.3465625 29.1346875 -19.140625 29.171875 C-18.24859375 29.21828125 -17.3565625 29.2646875 -16.4375 29.3125 C-16.44797363 28.63670898 -16.45844727 27.96091797 -16.46923828 27.26464844 C-16.51085976 24.19730358 -16.53684573 21.13001822 -16.5625 18.0625 C-16.57925781 16.99902344 -16.59601563 15.93554688 -16.61328125 14.83984375 C-16.61972656 13.81503906 -16.62617188 12.79023438 -16.6328125 11.734375 C-16.64328613 10.79174805 -16.65375977 9.84912109 -16.66455078 8.87792969 C-16.42528661 6.17450184 -15.89562676 4.58541535 -14.4375 2.3125 C-9.98764446 -0.3779117 -5.03968234 -0.01939832 0 0 Z " fill="#001C23" transform="translate(456.4375,163.6875)"/>
<path d="M0 0 C4.318468 4.62693 4.6360584 8.8119881 4.61328125 14.9921875 C4.29224895 20.94198604 4.29224895 20.94198604 3.625 23.8125 C0.625 25.8125 0.625 25.8125 -1.6015625 25.62890625 C-4.40941913 24.80236817 -7.05220916 23.73636393 -9.74291992 22.58959961 C-18.30522453 19.00782543 -26.01301198 17.34149336 -35.375 18.8125 C-38.88561975 20.50171034 -40.18849932 21.53274898 -42.375 24.8125 C-42.51357683 26.77588151 -42.51357683 26.77588151 -42.1875 28.8125 C-42.11144531 29.493125 -42.03539062 30.17375 -41.95703125 30.875 C-41.0130159 34.01749404 -39.17143395 35.33304676 -36.421875 36.98828125 C-31.32961679 39.50842944 -26.1733215 41.70292124 -20.875 43.75 C-14.6176972 46.18922121 -8.91017898 48.99443859 -3.375 52.8125 C-2.73046875 53.23789063 -2.0859375 53.66328125 -1.421875 54.1015625 C5.17963244 59.00963977 8.73757393 66.36545426 10.32421875 74.31640625 C11.24255063 83.3121089 10.17902191 90.98823639 5.9375 99 C-5.3860418 112.77187516 -17.59412197 117.35022034 -35.01953125 119.19921875 C-46.53754018 119.58806888 -63.31532823 117.7628242 -72.375 109.8125 C-74.06523616 106.96745358 -74.62442921 104.88487344 -74.60546875 101.58984375 C-74.60256836 100.41131836 -74.60256836 100.41131836 -74.59960938 99.20898438 C-74.58736328 98.39751953 -74.57511719 97.58605469 -74.5625 96.75 C-74.56185547 95.93466797 -74.56121094 95.11933594 -74.56054688 94.27929688 C-74.53480554 90.79849679 -74.48645888 88.14687664 -73.375 84.8125 C-71.0335998 83.78718511 -69.78908426 83.68987801 -67.33203125 84.41748047 C-66.62433594 84.75150879 -65.91664062 85.08553711 -65.1875 85.4296875 C-64.40632813 85.78933594 -63.62515625 86.14898437 -62.8203125 86.51953125 C-62.01335937 86.90496094 -61.20640625 87.29039062 -60.375 87.6875 C-58.77215014 88.43771567 -57.16802398 89.18521186 -55.5625 89.9296875 C-54.85480469 90.26597168 -54.14710937 90.60225586 -53.41796875 90.94873047 C-46.44272421 93.89787186 -35.99168973 94.35607407 -28.8046875 91.953125 C-26.78515475 90.78703496 -25.02875185 89.46625185 -23.375 87.8125 C-22.70805395 83.20104447 -22.63023515 79.85982556 -25.375 76 C-30.59037874 72.19711967 -36.17384285 69.88019718 -42.125 67.4375 C-66.14364442 57.52600876 -66.14364442 57.52600876 -72.375 44.8125 C-75.35227335 35.09217832 -75.55116816 23.85084564 -71.3125 14.5 C-65.2764705 3.87658808 -56.36063759 -1.57334569 -44.875 -5 C-30.69844282 -8.16246276 -12.79291537 -7.59661779 0 0 Z " fill="#001C23" transform="translate(1458.375,190.1875)"/>
<path d="M0 0 C1.00160156 0.13664063 2.00320313 0.27328125 3.03515625 0.4140625 C6.99627239 1.72554914 8.53642571 2.92752625 10.9375 6.375 C11.61281349 10.06078793 11.5450729 13.63928649 11.4375 17.375 C11.44136719 18.85226563 11.44136719 18.85226563 11.4453125 20.359375 C11.37628269 25.46758086 11.28920527 29.23885307 7.9375 33.375 C6.58317321 33.23066132 5.22904775 33.08443339 3.875 32.9375 C3.05128906 32.85113281 2.22757813 32.76476562 1.37890625 32.67578125 C-1.0625 32.375 -1.0625 32.375 -4.6875 31.625 C-10.21929207 31.21523762 -13.71483656 33.41238326 -18.125 36.5625 C-19.12284506 37.48009405 -20.1015843 38.41880199 -21.0625 39.375 C-21.5809549 39.85134888 -22.09940979 40.32769775 -22.63357544 40.81848145 C-28.75436764 47.47553496 -27.92088483 55.42611723 -27.8671875 63.90625 C-27.87845033 65.50909412 -27.8923365 67.11192175 -27.90872192 68.71472168 C-27.9446303 72.910279 -27.94515012 77.10510571 -27.93804932 81.30078125 C-27.93713376 85.59127723 -27.97003241 89.88150325 -28 94.171875 C-28.0537402 102.57301719 -28.07005892 110.97369027 -28.0625 119.375 C-35.70779446 122.75469886 -35.70779446 122.75469886 -39.9453125 122.73828125 C-40.80253906 122.73763672 -41.65976562 122.73699219 -42.54296875 122.73632812 C-43.41566406 122.72021484 -44.28835938 122.70410156 -45.1875 122.6875 C-46.50814453 122.69233398 -46.50814453 122.69233398 -47.85546875 122.69726562 C-52.28692633 122.66050391 -56.1090811 122.62162158 -60.0625 120.375 C-61.248303 118.003394 -61.19586049 116.55583852 -61.20967102 113.90945435 C-61.21682632 112.9701004 -61.22398163 112.03074646 -61.23135376 111.06292725 C-61.23404266 110.02911926 -61.23673157 108.99531128 -61.23950195 107.93017578 C-61.24607315 106.843909 -61.25264435 105.75764221 -61.25941467 104.63845825 C-61.27917715 101.03240903 -61.2908157 97.42640148 -61.30078125 93.8203125 C-61.30689454 91.97708216 -61.30689454 91.97708216 -61.31313133 90.09661484 C-61.33184912 84.2660352 -61.34641344 78.43547203 -61.3547433 72.60486805 C-61.36451955 65.8729396 -61.39084943 59.14133963 -61.43124419 52.40952694 C-61.46502522 46.58001643 -61.47688677 40.75061632 -61.48094749 34.92101669 C-61.48583072 32.4402328 -61.49749363 29.95945285 -61.51598549 27.47873306 C-61.54022644 24.01175749 -61.53943931 20.54564692 -61.5324707 17.07861328 C-61.54528076 16.04885376 -61.55809082 15.01909424 -61.57128906 13.95812988 C-61.52026184 7.01376469 -61.52026184 7.01376469 -59.17228699 3.73738098 C-56.71475819 2.15044803 -55.34751368 1.87209331 -52.4375 1.87890625 C-51.56609375 1.87826172 -50.6946875 1.87761719 -49.796875 1.87695312 C-48.89453125 1.89693359 -47.9921875 1.91691406 -47.0625 1.9375 C-46.16015625 1.93041016 -45.2578125 1.92332031 -44.328125 1.91601562 C-36.66936997 1.9896575 -36.66936997 1.9896575 -33.0625 5.375 C-32.453125 8.07421875 -32.453125 8.07421875 -32.3125 11.0625 C-32.25578125 12.05636719 -32.1990625 13.05023438 -32.140625 14.07421875 C-32.11484375 14.83347656 -32.0890625 15.59273437 -32.0625 16.375 C-31.44375 15.61316406 -31.44375 15.61316406 -30.8125 14.8359375 C-22.51860849 4.94991503 -13.53587745 -2.0609465 0 0 Z " fill="#001C23" transform="translate(703.0625,190.625)"/>
<path d="M0 0 C3.72605069 4.51140095 3.41906165 8.93321936 3.3125 14.5 C3.31572266 15.34175781 3.31894531 16.18351562 3.32226562 17.05078125 C3.28450915 21.40993834 3.18763049 25.10495059 1 29 C-1.25 30.4375 -1.25 30.4375 -4 31 C-6.00894394 30.36079057 -8.00779443 29.68960962 -10 29 C-15.15587354 28.12281925 -19.04604009 28.61041105 -23.5625 31.3125 C-29.75645578 36.1391863 -35.19515919 41.68942799 -36.67715454 49.62670898 C-36.87292809 53.79791341 -36.82345205 57.89291065 -36.67578125 62.0625 C-36.6531862 63.5865348 -36.63463819 65.11063441 -36.61991882 66.63476562 C-36.57276935 70.613145 -36.48002432 74.58901458 -36.37445068 78.56622314 C-36.21175927 84.95767161 -36.1154619 91.35029923 -36.02687645 97.74313354 C-35.98879203 99.97013215 -35.92860548 102.19571163 -35.86531067 104.42211914 C-35.83844584 105.78140193 -35.81210574 107.14069523 -35.78637695 108.5 C-35.75558548 109.6859375 -35.72479401 110.871875 -35.69306946 112.09375 C-36 115 -36 115 -37.39396667 116.8605957 C-43.56278239 121.2370772 -53.42961805 120.68277047 -60.5625 119.6171875 C-66.60240964 118.39759036 -66.60240964 118.39759036 -69 116 C-69.25168228 113.9975214 -69.25168228 113.9975214 -69.25396729 111.48976135 C-69.25960693 110.5405481 -69.26524658 109.59133484 -69.27105713 108.61335754 C-69.26700867 107.56862778 -69.26296021 106.52389801 -69.25878906 105.44750977 C-69.2622937 104.34988312 -69.26579834 103.25225647 -69.26940918 102.12136841 C-69.27824151 98.47798413 -69.27237157 94.83479265 -69.265625 91.19140625 C-69.26697131 88.66796328 -69.26891156 86.14452057 -69.27142334 83.62107849 C-69.27437672 78.32572731 -69.27026013 73.03044575 -69.26074219 67.73510742 C-69.24986289 61.61163853 -69.25337866 55.48830287 -69.264395 49.36483723 C-69.27456274 43.47765401 -69.2734886 37.59051221 -69.26763153 31.70332146 C-69.2662945 29.19661376 -69.2679446 26.68990268 -69.27259064 24.18319893 C-69.27765377 20.6826685 -69.26994811 17.18239593 -69.25878906 13.68188477 C-69.26283752 12.63917923 -69.26688599 11.59647369 -69.27105713 10.52217102 C-69.26541748 9.57013794 -69.25977783 8.61810486 -69.25396729 7.63722229 C-69.25321323 6.80928445 -69.25245918 5.98134661 -69.25168228 5.12831974 C-69 3 -69 3 -67 0 C-63.23220949 -1.14556724 -59.48073934 -1.16442439 -55.5625 -1.1875 C-54.47066406 -1.20167969 -53.37882812 -1.21585938 -52.25390625 -1.23046875 C-47.77931125 -0.91354065 -44.22217309 -0.22217309 -41 3 C-40.5859375 5.6015625 -40.5859375 5.6015625 -40.375 8.625 C-40.30023437 9.62789062 -40.22546875 10.63078125 -40.1484375 11.6640625 C-40.07496094 12.82035156 -40.07496094 12.82035156 -40 14 C-39.57589844 13.49210937 -39.15179687 12.98421875 -38.71484375 12.4609375 C-28.8042742 0.8296317 -15.46108763 -9.34107378 0 0 Z " fill="#001C23" transform="translate(1253,187)"/>
<path d="M0 0 C2.65006812 2.86879821 3.37549502 4.76060675 3.38095093 8.63685608 C3.39364014 10.02693626 3.39364014 10.02693626 3.40658569 11.44509888 C3.400513 12.45458588 3.39444031 13.46407288 3.38818359 14.50415039 C3.39344055 15.57280838 3.39869751 16.64146637 3.40411377 17.74250793 C3.41732632 21.27770569 3.40857155 24.81245386 3.3984375 28.34765625 C3.40045772 30.8009805 3.40336871 33.25430416 3.40713501 35.70762634 C3.41155995 40.84982011 3.40512108 45.99185759 3.39111328 51.1340332 C3.37401252 57.73421431 3.38386747 64.33402971 3.40183067 70.93419743 C3.4126561 75.99986034 3.409228 81.06543612 3.4014473 86.13110161 C3.39944233 88.5652413 3.40191491 90.99938883 3.40888596 93.43351936 C3.41648082 96.8309751 3.40492364 100.22783307 3.38818359 103.62524414 C3.39729263 105.14251099 3.39729263 105.14251099 3.40658569 106.69042969 C3.39812622 107.61432999 3.38966675 108.53823029 3.38095093 109.49012756 C3.37981985 110.29334474 3.37868877 111.09656191 3.37752342 111.924119 C2.90612591 114.51618373 2.03957221 115.38454171 0 117 C-8.91901793 120.41074919 -19.00895089 119.65468476 -28 117 C-28.66 116.67 -29.32 116.34 -30 116 C-30.07004673 101.18809457 -30.12296685 86.37621103 -30.15543652 71.5641737 C-30.17091274 64.68685053 -30.19201652 57.80963021 -30.22631836 50.93237305 C-30.25938615 44.29937783 -30.27683769 37.66646162 -30.28463173 31.03338051 C-30.29018834 28.49874499 -30.30103856 25.96411553 -30.31719017 23.42952538 C-30.33886714 19.88802666 -30.34197096 16.34697395 -30.34057617 12.80541992 C-30.351362 11.75022156 -30.36214783 10.69502319 -30.3732605 9.60784912 C-30.36913651 8.64451157 -30.36501251 7.68117401 -30.36076355 6.68864441 C-30.36352893 5.85073459 -30.36629431 5.01282476 -30.36914349 4.14952374 C-29.91108157 1.48222771 -29.13590138 0.61748654 -27 -1 C-18.71841622 -3.03221843 -7.91454844 -3.51757709 0 0 Z " fill="#001C22" transform="translate(1654,188)"/>
<path d="M0 0 C0.99837891 -0.020625 1.99675781 -0.04125 3.02539062 -0.0625 C12.29519618 -0.11190603 12.29519618 -0.11190603 16.1875 3.25 C17.37036666 5.61573333 17.31828374 7.04526795 17.32794189 9.68431091 C17.33365204 10.61669586 17.33936218 11.54908081 17.34524536 12.50971985 C17.34636322 13.53574814 17.34748108 14.56177643 17.34863281 15.61889648 C17.35608017 17.23607574 17.35608017 17.23607574 17.36367798 18.88592529 C17.37832355 22.46432119 17.38510503 26.04267277 17.390625 29.62109375 C17.39637376 32.09969586 17.40213152 34.57829795 17.40789795 37.05690002 C17.41841427 42.25806893 17.42425304 47.45922234 17.42773438 52.66040039 C17.43150376 58.01007203 17.44560634 63.35960628 17.46875 68.70922852 C17.49621663 75.15652554 17.50913876 81.60368863 17.51107025 88.05104256 C17.51410514 90.513104 17.52216159 92.97516442 17.53525543 95.43719292 C17.55223849 98.8755242 17.55045468 102.31335323 17.54394531 105.75170898 C17.55776749 107.28771507 17.55776749 107.28771507 17.5718689 108.85475159 C17.56629974 109.78995636 17.56073059 110.72516113 17.55499268 111.68870544 C17.55645924 112.5018946 17.5579258 113.31508375 17.5594368 114.152915 C17.09648665 116.76315902 16.24415305 117.6300289 14.1875 119.25 C9.74535786 120.82532472 4.96786816 120.47312919 0.3125 120.5 C-0.57308594 120.520625 -1.45867187 120.54125 -2.37109375 120.5625 C-3.23605469 120.56765625 -4.10101563 120.5728125 -4.9921875 120.578125 C-5.77319824 120.5874707 -6.55420898 120.59681641 -7.35888672 120.60644531 C-10.55746212 120.14177665 -12.9602964 118.73060552 -15.8125 117.25 C-15.88254749 102.56847871 -15.93546722 87.8869795 -15.96793652 73.20532513 C-15.98341258 66.38853562 -16.00451605 59.57184987 -16.03881836 52.75512695 C-16.07188675 46.18048645 -16.08933781 39.60592566 -16.09713173 33.0311985 C-16.10268824 30.51889152 -16.11353826 28.00659066 -16.12969017 25.49432945 C-16.15136791 21.98396261 -16.15447093 18.47404571 -16.15307617 14.96362305 C-16.163862 13.91777542 -16.17464783 12.8719278 -16.1857605 11.79438782 C-16.18163651 10.83946442 -16.17751251 9.88454102 -16.17326355 8.90068054 C-16.17602893 8.07014506 -16.17879431 7.23960958 -16.18164349 6.38390636 C-15.72445336 3.74102911 -14.88617399 2.89583117 -12.8125 1.25 C-8.96252679 -0.6749866 -4.2349112 0.02162048 0 0 Z " fill="#001C22" transform="translate(257.8125,192.75)"/>
<path d="M0 0 C3.75031733 3.23573891 4.7593513 6.65098134 5.26171875 11.5546875 C5.51220502 17.79093199 4.99366439 22.99870336 1 28 C-5.70165578 32.42024105 -13.66824585 33.00663518 -21.44140625 31.5390625 C-25.38664537 30.43413556 -27.60232017 29.40762182 -30.5 26.4375 C-33.40978344 19.76924627 -33.65817938 12.99729819 -31.78515625 5.9765625 C-30.49394968 2.72606238 -28.79672107 1.05092878 -26 -1 C-17.62512876 -4.44847639 -8.11248185 -4.03135601 0 0 Z " fill="#001C23" transform="translate(1654,141)"/>
<path d="M0 0 C3.72567876 3.34509867 4.2891728 6.65893948 4.76171875 11.40234375 C5.01857074 18.18167951 4.91774075 23.03873046 0.453125 28.3046875 C-4.62405203 30.97555978 -8.85506106 31.77823902 -14.609375 31.6796875 C-15.29064453 31.69128906 -15.97191406 31.70289063 -16.67382812 31.71484375 C-21.36077432 31.68782965 -24.56297431 30.74259688 -28.546875 28.3046875 C-33.1217427 23.25655763 -32.82366957 18.06237845 -32.765625 11.546875 C-32.42438861 6.48926416 -31.34345324 3.0433116 -27.609375 -0.5703125 C-20.21250782 -4.60496732 -7.14998236 -4.50759757 0 0 Z " fill="#001C23" transform="translate(272.546875,147.6953125)"/>
</svg>
